<?xml version="1.0" encoding="UTF-8" standalone="no"?>
<!-- Created with Inkscape (http://www.inkscape.org/) -->

<svg
   xmlns:dc="http://purl.org/dc/elements/1.1/"
   xmlns:cc="http://creativecommons.org/ns#"
   xmlns:rdf="http://www.w3.org/1999/02/22-rdf-syntax-ns#"
   xmlns:svg="http://www.w3.org/2000/svg"
   xmlns="http://www.w3.org/2000/svg"
   xmlns:sodipodi="http://sodipodi.sourceforge.net/DTD/sodipodi-0.dtd"
   xmlns:inkscape="http://www.inkscape.org/namespaces/inkscape"
   id="svg4136"
   version="1.1"
   inkscape:version="0.91 r13725"
   xml:space="preserve"
   width="630"
   height="598.75"
   viewBox="0 0 630 598.75"
   sodipodi:docname="vettoriale_logosic_roma.svg"><metadata
     id="metadata4142"><rdf:RDF><cc:Work
         rdf:about=""><dc:format>image/svg+xml</dc:format><dc:type
           rdf:resource="http://purl.org/dc/dcmitype/StillImage" /><dc:title></dc:title></cc:Work></rdf:RDF></metadata><defs
     id="defs4140" /><sodipodi:namedview
     pagecolor="#ffffff"
     bordercolor="#666666"
     borderopacity="1"
     objecttolerance="10"
     gridtolerance="10"
     guidetolerance="10"
     inkscape:pageopacity="0"
     inkscape:pageshadow="2"
     inkscape:window-width="1366"
     inkscape:window-height="705"
     id="namedview4138"
     showgrid="false"
     inkscape:zoom="0.89519833"
     inkscape:cx="315"
     inkscape:cy="299.375"
     inkscape:window-x="-8"
     inkscape:window-y="-8"
     inkscape:window-maximized="1"
     inkscape:current-layer="g4146" /><g
     id="g4144"
     inkscape:groupmode="layer"
     inkscape:label="vettoriale_logosic_roma"
     transform="matrix(1.25,0,0,-1.25,0,598.75)"><g
       id="g4146"><path
         d="m 252.562,476.148 c 123.012,0 224.137,-93.836 235.715,-213.816 l -471.433,0 c 11.578,119.98 112.707,213.816 235.718,213.816 z M 481.406,178.176 C 454.441,77.023 362.195,2.48 252.562,2.48 142.926,2.48 50.68,77.023 23.715,178.176 l 457.691,0"
         style="fill:#ef7b14;fill-opacity:1;fill-rule:evenodd;stroke:none"
         id="path4148"
         inkscape:connector-curvature="0" /><g
         id="g4150"
         transform="translate(0,479)"><path
           d="m 252.562,-2.852 c 123.012,0 224.137,-93.836 235.715,-213.816 l -471.433,0 C 28.422,-96.688 129.551,-2.852 252.562,-2.852 Z M 481.406,-300.824 C 454.441,-401.977 362.195,-476.52 252.562,-476.52 c -109.636,0 -201.882,74.543 -228.847,175.696 l 457.691,0 z"
           style="fill:none;stroke:#ffffff;stroke-width:4.00706005;stroke-linecap:butt;stroke-linejoin:miter;stroke-miterlimit:2.61310005;stroke-dasharray:none;stroke-opacity:1"
           id="path4152"
           inkscape:connector-curvature="0" /></g><path
         d="m 2.465,262.332 499.172,0 0,-19.719 -14.305,-23.562 14.305,-23.563 0,-17.312 -499.172,0 0,18.804 13.867,21.969 -13.867,21.973 0,21.41"
         style="fill:#0ea3e1;fill-opacity:1;fill-rule:evenodd;stroke:none"
         id="path4154"
         inkscape:connector-curvature="0" /><g
         id="g4156"
         transform="matrix(0,-1,0.964447,0,0,479)"><path
           d="m 216.668,2.556 0,517.573 19.719,0 23.562,-14.832 23.563,14.832 17.312,0 0,-517.573 -18.804,0 -21.969,14.378 -21.973,-14.378 -21.41,0 z"
           style="fill:none;stroke:#ffffff;stroke-width:4.00706816;stroke-linecap:butt;stroke-linejoin:miter;stroke-miterlimit:2.61310005;stroke-dasharray:none;stroke-opacity:1"
           id="path4158"
           inkscape:connector-curvature="0" /></g><g
         id="g4160"
         transform="translate(0,479)"><path
           d="m 61.402,-254.238 -5.629,0 -1.711,-8.328 5.235,0 0,-4.204 -6.152,0 -2.102,-9.707 -4.453,0 2.074,9.707 -7.309,0 -2.121,-9.707 -4.453,0 2.074,9.707 -4.71,0 0,4.204 5.597,0 1.77,8.328 -5.239,0 0,4.148 6.106,0 2.121,9.82 4.453,0 -2.074,-9.82 7.312,0 2.129,9.82 4.426,0 -2.047,-9.82 4.703,0 0,-4.148 z m -10.109,0 -7.273,0 -1.766,-8.328 7.308,0 1.731,8.328 z m 29.668,-22.852 c -5.258,0 -9.289,1.07 -12.09,3.207 -2.797,2.145 -4.316,5.25 -4.566,9.344 l 6.976,0 c 0.106,-1.16 0.422,-2.176 0.938,-3.023 0.515,-0.86 1.183,-1.571 2.023,-2.149 0.84,-0.566 1.817,-0.992 2.926,-1.277 1.117,-0.293 2.312,-0.43 3.602,-0.43 1.25,0 2.378,0.109 3.402,0.348 1.012,0.226 1.879,0.566 2.59,1.004 0.707,0.437 1.25,0.968 1.633,1.597 0.382,0.641 0.574,1.352 0.574,2.157 0,0.71 -0.176,1.332 -0.528,1.843 -0.351,0.524 -0.89,0.981 -1.586,1.383 -0.699,0.398 -1.578,0.758 -2.648,1.074 -1.059,0.313 -2.301,0.633 -3.715,0.969 -2.074,0.469 -3.965,0.934 -5.676,1.406 -1.703,0.477 -3.191,1.051 -4.461,1.746 -1.273,0.688 -2.285,1.516 -3.05,2.504 -0.762,0.977 -1.25,2.227 -1.461,3.742 -0.059,0.395 -0.094,0.79 -0.125,1.192 -0.028,0.398 -0.02,0.808 0.019,1.238 0.106,1.418 0.528,2.703 1.242,3.875 0.719,1.168 1.7,2.164 2.942,3.004 1.242,0.84 2.715,1.5 4.426,1.973 1.699,0.465 3.593,0.703 5.668,0.703 2.254,0 4.308,-0.246 6.152,-0.75 1.855,-0.492 3.43,-1.231 4.75,-2.192 1.316,-0.957 2.348,-2.136 3.094,-3.515 0.746,-1.387 1.164,-2.961 1.254,-4.723 l -7.055,0 c -0.371,3.692 -3.027,5.535 -7.977,5.535 -1.175,0 -2.218,-0.109 -3.132,-0.336 -0.918,-0.218 -1.692,-0.531 -2.325,-0.933 -0.629,-0.403 -1.117,-0.875 -1.453,-1.434 -0.344,-0.547 -0.504,-1.18 -0.504,-1.871 0,-0.66 0.141,-1.226 0.43,-1.683 0.297,-0.465 0.754,-0.876 1.402,-1.223 0.641,-0.348 1.473,-0.668 2.477,-0.977 1.004,-0.3 2.234,-0.601 3.699,-0.902 1.336,-0.297 2.652,-0.578 3.926,-0.859 1.281,-0.286 2.492,-0.622 3.629,-1.016 1.14,-0.395 2.191,-0.848 3.144,-1.371 0.965,-0.512 1.789,-1.141 2.465,-1.879 0.68,-0.742 1.215,-1.617 1.598,-2.621 0.379,-1.016 0.57,-2.195 0.57,-3.555 0,-1.726 -0.379,-3.277 -1.144,-4.648 -0.766,-1.379 -1.825,-2.547 -3.172,-3.508 -1.36,-0.969 -2.961,-1.699 -4.809,-2.211 -1.844,-0.512 -3.867,-0.758 -6.074,-0.758 z m 40.445,15.438 -5.457,15.39 -5.261,-15.39 10.718,0 z m 12.766,-14.825 -7.617,0 -3.438,9.262 -14.133,0 -3.304,-9.262 -7.254,0 13.605,36.207 7.922,0 14.219,-36.207 z m 28.418,0 -24.559,0 0,36.207 7.254,0 0,-30.191 17.305,0 0,-6.016 z m 36.633,36.207 -13.379,-36.207 -8.063,0 -13.379,36.207 7.532,0 c 1.175,-3.41 2.32,-6.796 3.449,-10.16 1.137,-3.359 2.281,-6.738 3.457,-10.129 l 2.972,-9.5 3.02,9.5 c 1.137,3.391 2.285,6.77 3.449,10.129 1.157,3.364 2.305,6.75 3.442,10.16 l 7.5,0 z m 23.199,-21.382 -5.457,15.39 -5.266,-15.39 10.723,0 z m 12.766,-14.825 -7.618,0 -3.437,9.262 -14.133,0 -3.305,-9.262 -7.254,0 13.606,36.207 7.922,0 14.219,-36.207 z m 11.531,0 -7.25,0 0,36.207 7.25,0 0,-36.207 z m 24.519,-0.613 c -2.687,0 -5.133,0.41 -7.328,1.242 -2.207,0.832 -4.101,2.082 -5.687,3.754 -1.606,1.699 -2.797,3.68 -3.582,5.953 -0.786,2.278 -1.176,4.864 -1.176,7.746 0,5.731 1.586,10.286 4.758,13.684 1.625,1.691 3.527,2.961 5.715,3.801 2.179,0.832 4.613,1.25 7.3,1.25 2.129,0 4.059,-0.246 5.801,-0.731 1.727,-0.492 3.324,-1.261 4.785,-2.32 1.731,-1.215 3.02,-2.594 3.86,-4.144 0.839,-1.555 1.378,-3.317 1.597,-5.297 l -7.308,0 c -0.145,1.011 -0.453,1.933 -0.911,2.757 -0.457,0.821 -1.058,1.516 -1.804,2.083 -0.746,0.574 -1.625,1.011 -2.629,1.316 -1.012,0.301 -2.129,0.453 -3.363,0.453 -1.547,0 -2.961,-0.281 -4.243,-0.848 -1.269,-0.558 -2.371,-1.379 -3.265,-2.476 -0.91,-1.086 -1.606,-2.43 -2.106,-4.02 -0.496,-1.597 -0.742,-3.433 -0.742,-5.508 0,-2.043 0.246,-3.871 0.727,-5.468 0.484,-1.59 1.172,-2.934 2.062,-4.028 0.879,-1.089 1.957,-1.91 3.231,-2.476 1.269,-0.559 2.683,-0.84 4.25,-0.84 2.523,0 4.539,0.602 6.066,1.809 1.52,1.207 2.43,2.949 2.727,5.234 l 7.25,0 c -0.239,-2.074 -0.762,-3.91 -1.578,-5.52 -0.809,-1.605 -1.95,-2.968 -3.399,-4.089 -1.48,-1.141 -3.117,-1.985 -4.922,-2.512 -1.797,-0.539 -3.82,-0.805 -6.086,-0.805 z m 30.098,0.613 -7.25,0 0,36.207 7.25,0 0,-36.207 z m 24.519,-0.613 c -2.687,0 -5.132,0.41 -7.332,1.242 -2.207,0.832 -4.097,2.082 -5.683,3.754 -1.606,1.699 -2.801,3.68 -3.582,5.953 -0.785,2.278 -1.176,4.864 -1.176,7.746 0,5.731 1.586,10.286 4.758,13.684 1.625,1.691 3.527,2.961 5.715,3.801 2.175,0.832 4.613,1.25 7.3,1.25 2.129,0 4.059,-0.246 5.797,-0.731 1.731,-0.492 3.328,-1.261 4.789,-2.32 1.731,-1.215 3.02,-2.594 3.86,-4.144 0.84,-1.555 1.375,-3.317 1.594,-5.297 l -7.309,0 c -0.141,1.011 -0.449,1.933 -0.906,2.757 -0.457,0.821 -1.063,1.516 -1.809,2.083 -0.742,0.574 -1.621,1.011 -2.625,1.316 -1.012,0.301 -2.133,0.453 -3.363,0.453 -1.547,0 -2.961,-0.281 -4.242,-0.848 -1.274,-0.558 -2.371,-1.379 -3.27,-2.476 -0.906,-1.086 -1.605,-2.43 -2.101,-4.02 -0.497,-1.597 -0.747,-3.433 -0.747,-5.508 0,-2.043 0.25,-3.871 0.727,-5.468 0.488,-1.59 1.176,-2.934 2.066,-4.028 0.879,-1.089 1.957,-1.91 3.231,-2.476 1.269,-0.559 2.683,-0.84 4.25,-0.84 2.523,0 4.539,0.602 6.066,1.809 1.52,1.207 2.426,2.949 2.723,5.234 l 7.254,0 c -0.238,-2.074 -0.766,-3.91 -1.578,-5.52 -0.813,-1.605 -1.95,-2.968 -3.403,-4.089 -1.48,-1.141 -3.113,-1.985 -4.918,-2.512 -1.796,-0.539 -3.824,-0.805 -6.086,-0.805 z m 46.981,0.613 -24.559,0 0,36.207 7.254,0 0,-30.191 17.305,0 0,-6.016 z m 13.203,0 -7.25,0 0,36.207 7.25,0 0,-36.207 z m 22.867,-0.613 c -5.258,0 -9.289,1.07 -12.09,3.207 -2.796,2.145 -4.316,5.25 -4.566,9.344 l 6.977,0 c 0.105,-1.16 0.421,-2.176 0.937,-3.023 0.516,-0.86 1.184,-1.571 2.024,-2.149 0.839,-0.566 1.816,-0.992 2.925,-1.277 1.117,-0.293 2.313,-0.43 3.602,-0.43 1.25,0 2.379,0.109 3.402,0.348 1.012,0.226 1.879,0.566 2.586,1.004 0.711,0.437 1.254,0.968 1.637,1.597 0.383,0.641 0.574,1.352 0.574,2.157 0,0.71 -0.172,1.332 -0.527,1.843 -0.352,0.524 -0.891,0.981 -1.586,1.383 -0.696,0.398 -1.574,0.758 -2.649,1.074 -1.058,0.313 -2.3,0.633 -3.714,0.969 -2.075,0.469 -3.965,0.934 -5.676,1.406 -1.7,0.477 -3.192,1.051 -4.461,1.746 -1.274,0.688 -2.285,1.516 -3.047,2.504 -0.766,0.977 -1.254,2.227 -1.465,3.742 -0.059,0.395 -0.094,0.79 -0.125,1.192 -0.027,0.398 -0.019,0.808 0.02,1.238 0.105,1.418 0.527,2.703 1.242,3.875 0.719,1.168 1.703,2.164 2.945,3.004 1.242,0.84 2.711,1.5 4.422,1.973 1.703,0.465 3.594,0.703 5.668,0.703 2.254,0 4.309,-0.246 6.152,-0.75 1.856,-0.492 3.43,-1.231 4.75,-2.192 1.317,-0.957 2.352,-2.136 3.094,-3.515 0.746,-1.387 1.164,-2.961 1.254,-4.723 l -7.055,0 c -0.371,3.692 -3.027,5.535 -7.976,5.535 -1.176,0 -2.215,-0.109 -3.133,-0.336 -0.918,-0.218 -1.692,-0.531 -2.324,-0.933 -0.629,-0.403 -1.118,-0.875 -1.453,-1.434 -0.344,-0.547 -0.504,-1.18 -0.504,-1.871 0,-0.66 0.14,-1.226 0.429,-1.683 0.297,-0.465 0.754,-0.876 1.407,-1.223 0.636,-0.348 1.468,-0.668 2.472,-0.977 1.004,-0.3 2.235,-0.601 3.699,-0.902 1.336,-0.297 2.657,-0.578 3.926,-0.859 1.281,-0.286 2.492,-0.622 3.629,-1.016 1.141,-0.395 2.192,-0.848 3.145,-1.371 0.965,-0.512 1.789,-1.141 2.465,-1.879 0.679,-0.742 1.214,-1.617 1.597,-2.621 0.379,-1.016 0.57,-2.195 0.57,-3.555 0,-1.726 -0.378,-3.277 -1.144,-4.648 -0.766,-1.379 -1.824,-2.547 -3.172,-3.508 -1.355,-0.969 -2.961,-1.699 -4.809,-2.211 -1.839,-0.512 -3.867,-0.758 -6.074,-0.758 z m 48.785,30.828 -11.531,0 0,-30.215 -7.242,0 0,30.215 -11.43,0 0,5.992 30.203,0 0,-5.992 z m 12.633,-30.215 -7.25,0 0,36.207 7.25,0 0,-36.207 z"
           style="fill:none;stroke:#ffffff;stroke-width:0.19587;stroke-linecap:butt;stroke-linejoin:miter;stroke-miterlimit:2.61310005;stroke-dasharray:none;stroke-opacity:1"
           id="path4162"
           inkscape:connector-curvature="0" /></g><path
         d="m 61.402,224.762 -5.629,0 -1.711,-8.328 5.235,0 0,-4.204 -6.152,0 -2.102,-9.707 -4.453,0 2.074,9.707 -7.309,0 -2.121,-9.707 -4.453,0 2.074,9.707 -4.71,0 0,4.204 5.597,0 1.77,8.328 -5.239,0 0,4.148 6.106,0 2.121,9.82 4.453,0 -2.074,-9.82 7.312,0 2.129,9.82 4.426,0 -2.047,-9.82 4.703,0 0,-4.148 z m -10.109,0 -7.273,0 -1.766,-8.328 7.308,0 1.731,8.328 z M 80.961,201.91 c -5.258,0 -9.289,1.07 -12.09,3.207 -2.797,2.145 -4.316,5.25 -4.566,9.344 l 6.976,0 c 0.106,-1.16 0.422,-2.176 0.938,-3.023 0.515,-0.86 1.183,-1.571 2.023,-2.149 0.84,-0.566 1.817,-0.992 2.926,-1.277 1.117,-0.293 2.312,-0.43 3.602,-0.43 1.25,0 2.378,0.109 3.402,0.348 1.012,0.226 1.879,0.566 2.59,1.004 0.707,0.437 1.25,0.968 1.633,1.597 0.382,0.641 0.574,1.352 0.574,2.157 0,0.71 -0.176,1.332 -0.528,1.843 -0.351,0.524 -0.89,0.981 -1.586,1.383 -0.699,0.398 -1.578,0.758 -2.648,1.074 -1.059,0.313 -2.301,0.633 -3.715,0.969 -2.074,0.469 -3.965,0.934 -5.676,1.406 -1.703,0.477 -3.191,1.051 -4.461,1.746 -1.273,0.688 -2.285,1.516 -3.05,2.504 -0.762,0.977 -1.25,2.227 -1.461,3.742 -0.059,0.395 -0.094,0.79 -0.125,1.192 -0.028,0.398 -0.02,0.808 0.019,1.238 0.106,1.418 0.528,2.703 1.242,3.875 0.719,1.168 1.7,2.164 2.942,3.004 1.242,0.84 2.715,1.5 4.426,1.973 1.699,0.465 3.593,0.703 5.668,0.703 2.254,0 4.308,-0.246 6.152,-0.75 1.855,-0.492 3.43,-1.231 4.75,-2.192 1.316,-0.957 2.348,-2.136 3.094,-3.515 0.746,-1.387 1.164,-2.961 1.254,-4.723 l -7.055,0 c -0.371,3.692 -3.027,5.535 -7.977,5.535 -1.175,0 -2.218,-0.109 -3.132,-0.336 -0.918,-0.218 -1.692,-0.531 -2.325,-0.933 -0.629,-0.403 -1.117,-0.875 -1.453,-1.434 -0.344,-0.547 -0.504,-1.18 -0.504,-1.871 0,-0.66 0.141,-1.226 0.43,-1.683 0.297,-0.465 0.754,-0.876 1.402,-1.223 0.641,-0.348 1.473,-0.668 2.477,-0.977 1.004,-0.3 2.234,-0.601 3.699,-0.902 1.336,-0.297 2.652,-0.578 3.926,-0.859 1.281,-0.286 2.492,-0.622 3.629,-1.016 1.14,-0.395 2.191,-0.848 3.144,-1.371 0.965,-0.512 1.789,-1.141 2.465,-1.879 0.68,-0.742 1.215,-1.617 1.598,-2.621 0.379,-1.016 0.57,-2.195 0.57,-3.555 0,-1.726 -0.379,-3.277 -1.144,-4.648 -0.766,-1.379 -1.825,-2.547 -3.172,-3.508 -1.36,-0.969 -2.961,-1.699 -4.809,-2.211 -1.844,-0.512 -3.867,-0.758 -6.074,-0.758 z m 40.445,15.438 -5.457,15.39 -5.261,-15.39 10.718,0 z m 12.766,-14.825 -7.617,0 -3.438,9.262 -14.133,0 -3.304,-9.262 -7.254,0 13.605,36.207 7.922,0 14.219,-36.207 z m 28.418,0 -24.559,0 0,36.207 7.254,0 0,-30.191 17.305,0 0,-6.016 z m 36.633,36.207 -13.379,-36.207 -8.063,0 -13.379,36.207 7.532,0 c 1.175,-3.41 2.32,-6.796 3.449,-10.16 1.137,-3.359 2.281,-6.738 3.457,-10.129 l 2.972,-9.5 3.02,9.5 c 1.137,3.391 2.285,6.77 3.449,10.129 1.157,3.364 2.305,6.75 3.442,10.16 l 7.5,0 z m 23.199,-21.382 -5.457,15.39 -5.266,-15.39 10.723,0 z m 12.766,-14.825 -7.618,0 -3.437,9.262 -14.133,0 -3.305,-9.262 -7.254,0 13.606,36.207 7.922,0 14.219,-36.207 z m 11.531,0 -7.25,0 0,36.207 7.25,0 0,-36.207 z m 24.519,-0.613 c -2.687,0 -5.133,0.41 -7.328,1.242 -2.207,0.832 -4.101,2.082 -5.687,3.754 -1.606,1.699 -2.797,3.68 -3.582,5.953 -0.786,2.278 -1.176,4.864 -1.176,7.746 0,5.731 1.586,10.286 4.758,13.684 1.625,1.691 3.527,2.961 5.715,3.801 2.179,0.832 4.613,1.25 7.3,1.25 2.129,0 4.059,-0.246 5.801,-0.731 1.727,-0.492 3.324,-1.261 4.785,-2.32 1.731,-1.215 3.02,-2.594 3.86,-4.144 0.839,-1.555 1.378,-3.317 1.597,-5.297 l -7.308,0 c -0.145,1.011 -0.453,1.933 -0.911,2.757 -0.457,0.821 -1.058,1.516 -1.804,2.083 -0.746,0.574 -1.625,1.011 -2.629,1.316 -1.012,0.301 -2.129,0.453 -3.363,0.453 -1.547,0 -2.961,-0.281 -4.243,-0.848 -1.269,-0.558 -2.371,-1.379 -3.265,-2.476 -0.91,-1.086 -1.606,-2.43 -2.106,-4.02 -0.496,-1.597 -0.742,-3.433 -0.742,-5.508 0,-2.043 0.246,-3.871 0.727,-5.468 0.484,-1.59 1.172,-2.934 2.062,-4.028 0.879,-1.089 1.957,-1.91 3.231,-2.476 1.269,-0.559 2.683,-0.84 4.25,-0.84 2.523,0 4.539,0.602 6.066,1.809 1.52,1.207 2.43,2.949 2.727,5.234 l 7.25,0 c -0.239,-2.074 -0.762,-3.91 -1.578,-5.52 -0.809,-1.605 -1.95,-2.968 -3.399,-4.089 -1.48,-1.141 -3.117,-1.985 -4.922,-2.512 -1.797,-0.539 -3.82,-0.805 -6.086,-0.805 z m 30.098,0.613 -7.25,0 0,36.207 7.25,0 0,-36.207 z m 24.519,-0.613 c -2.687,0 -5.132,0.41 -7.332,1.242 -2.207,0.832 -4.097,2.082 -5.683,3.754 -1.606,1.699 -2.801,3.68 -3.582,5.953 -0.785,2.278 -1.176,4.864 -1.176,7.746 0,5.731 1.586,10.286 4.758,13.684 1.625,1.691 3.527,2.961 5.715,3.801 2.175,0.832 4.613,1.25 7.3,1.25 2.129,0 4.059,-0.246 5.797,-0.731 1.731,-0.492 3.328,-1.261 4.789,-2.32 1.731,-1.215 3.02,-2.594 3.86,-4.144 0.84,-1.555 1.375,-3.317 1.594,-5.297 l -7.309,0 c -0.141,1.011 -0.449,1.933 -0.906,2.757 -0.457,0.821 -1.063,1.516 -1.809,2.083 -0.742,0.574 -1.621,1.011 -2.625,1.316 -1.012,0.301 -2.133,0.453 -3.363,0.453 -1.547,0 -2.961,-0.281 -4.242,-0.848 -1.274,-0.558 -2.371,-1.379 -3.27,-2.476 -0.906,-1.086 -1.605,-2.43 -2.101,-4.02 -0.497,-1.597 -0.747,-3.433 -0.747,-5.508 0,-2.043 0.25,-3.871 0.727,-5.468 0.488,-1.59 1.176,-2.934 2.066,-4.028 0.879,-1.089 1.957,-1.91 3.231,-2.476 1.269,-0.559 2.683,-0.84 4.25,-0.84 2.523,0 4.539,0.602 6.066,1.809 1.52,1.207 2.426,2.949 2.723,5.234 l 7.254,0 c -0.238,-2.074 -0.766,-3.91 -1.578,-5.52 -0.813,-1.605 -1.95,-2.968 -3.403,-4.089 -1.48,-1.141 -3.113,-1.985 -4.918,-2.512 -1.796,-0.539 -3.824,-0.805 -6.086,-0.805 z m 46.981,0.613 -24.559,0 0,36.207 7.254,0 0,-30.191 17.305,0 0,-6.016 z m 13.203,0 -7.25,0 0,36.207 7.25,0 0,-36.207 z m 22.867,-0.613 c -5.258,0 -9.289,1.07 -12.09,3.207 -2.796,2.145 -4.316,5.25 -4.566,9.344 l 6.977,0 c 0.105,-1.16 0.421,-2.176 0.937,-3.023 0.516,-0.86 1.184,-1.571 2.024,-2.149 0.839,-0.566 1.816,-0.992 2.925,-1.277 1.117,-0.293 2.313,-0.43 3.602,-0.43 1.25,0 2.379,0.109 3.402,0.348 1.012,0.226 1.879,0.566 2.586,1.004 0.711,0.437 1.254,0.968 1.637,1.597 0.383,0.641 0.574,1.352 0.574,2.157 0,0.71 -0.172,1.332 -0.527,1.843 -0.352,0.524 -0.891,0.981 -1.586,1.383 -0.696,0.398 -1.574,0.758 -2.649,1.074 -1.058,0.313 -2.3,0.633 -3.714,0.969 -2.075,0.469 -3.965,0.934 -5.676,1.406 -1.7,0.477 -3.192,1.051 -4.461,1.746 -1.274,0.688 -2.285,1.516 -3.047,2.504 -0.766,0.977 -1.254,2.227 -1.465,3.742 -0.059,0.395 -0.094,0.79 -0.125,1.192 -0.027,0.398 -0.019,0.808 0.02,1.238 0.105,1.418 0.527,2.703 1.242,3.875 0.719,1.168 1.703,2.164 2.945,3.004 1.242,0.84 2.711,1.5 4.422,1.973 1.703,0.465 3.594,0.703 5.668,0.703 2.254,0 4.309,-0.246 6.152,-0.75 1.856,-0.492 3.43,-1.231 4.75,-2.192 1.317,-0.957 2.352,-2.136 3.094,-3.515 0.746,-1.387 1.164,-2.961 1.254,-4.723 l -7.055,0 c -0.371,3.692 -3.027,5.535 -7.976,5.535 -1.176,0 -2.215,-0.109 -3.133,-0.336 -0.918,-0.218 -1.692,-0.531 -2.324,-0.933 -0.629,-0.403 -1.118,-0.875 -1.453,-1.434 -0.344,-0.547 -0.504,-1.18 -0.504,-1.871 0,-0.66 0.14,-1.226 0.429,-1.683 0.297,-0.465 0.754,-0.876 1.407,-1.223 0.636,-0.348 1.468,-0.668 2.472,-0.977 1.004,-0.3 2.235,-0.601 3.699,-0.902 1.336,-0.297 2.657,-0.578 3.926,-0.859 1.281,-0.286 2.492,-0.622 3.629,-1.016 1.141,-0.395 2.192,-0.848 3.145,-1.371 0.965,-0.512 1.789,-1.141 2.465,-1.879 0.679,-0.742 1.214,-1.617 1.597,-2.621 0.379,-1.016 0.57,-2.195 0.57,-3.555 0,-1.726 -0.378,-3.277 -1.144,-4.648 -0.766,-1.379 -1.824,-2.547 -3.172,-3.508 -1.355,-0.969 -2.961,-1.699 -4.809,-2.211 -1.839,-0.512 -3.867,-0.758 -6.074,-0.758 z m 48.785,30.828 -11.531,0 0,-30.215 -7.242,0 0,30.215 -11.43,0 0,5.992 30.203,0 0,-5.992 z m 12.633,-30.215 -7.25,0 0,36.207 7.25,0 0,-36.207"
         style="fill:#ffffff;fill-opacity:1;fill-rule:nonzero;stroke:none"
         id="path4164"
         inkscape:connector-curvature="0" /><g
         id="g4166"
         transform="translate(0,479)"><path
           d="m 193.477,-369.773 -10.457,0 -4.485,12.121 c -0.398,1.054 -0.898,2.023 -1.504,2.922 -0.601,0.882 -1.308,1.632 -2.117,2.257 -0.824,0.629 -1.723,1.106 -2.699,1.438 -0.977,0.344 -2.055,0.504 -3.235,0.504 l -9.48,0 0,-19.242 -9.75,0 0,48.675 22.621,0 c 1.899,0 3.672,-0.074 5.293,-0.23 1.606,-0.16 3.094,-0.445 4.457,-0.852 1.348,-0.402 2.567,-0.968 3.649,-1.691 1.078,-0.715 2.015,-1.649 2.824,-2.801 1.633,-2.308 2.441,-5.058 2.441,-8.277 0,-3.426 -0.949,-6.199 -2.863,-8.324 -1.902,-2.125 -4.586,-3.575 -8.055,-4.336 l 0,-0.11 c 1.965,-0.625 3.582,-1.695 4.879,-3.219 1.285,-1.523 2.442,-3.523 3.445,-5.992 l 5.036,-12.843 z m -33.977,26.867 11.855,0 c 1.735,0 3.211,0.148 4.446,0.418 1.219,0.285 2.234,0.711 3.015,1.3 0.797,0.579 1.375,1.352 1.762,2.286 0.371,0.933 0.567,2.062 0.567,3.379 0,2.418 -0.758,4.211 -2.25,5.363 -1.489,1.14 -3.739,1.719 -6.754,1.719 l -12.641,0 0,-14.465 z m 63.789,22.633 c 3.688,0 7.027,-0.602 10.008,-1.821 2.992,-1.203 5.547,-2.91 7.668,-5.105 2.121,-2.188 3.75,-4.84 4.906,-7.934 1.156,-3.094 1.734,-6.531 1.734,-10.328 0,-3.73 -0.566,-7.144 -1.695,-10.227 -1.129,-3.082 -2.75,-5.734 -4.855,-7.945 -2.106,-2.222 -4.664,-3.941 -7.657,-5.144 -3.003,-1.215 -6.371,-1.817 -10.109,-1.817 -3.711,0 -7.078,0.602 -10.098,1.817 -3.031,1.203 -5.597,2.91 -7.73,5.121 -2.145,2.211 -3.777,4.859 -4.922,7.957 -1.141,3.082 -1.707,6.508 -1.707,10.238 0,3.797 0.578,7.234 1.734,10.328 1.157,3.094 2.789,5.746 4.918,7.934 2.133,2.195 4.715,3.902 7.719,5.105 3.008,1.219 6.375,1.821 10.086,1.821 z m -0.078,-42.415 c 2.262,0 4.277,0.43 6.062,1.278 1.789,0.848 3.289,2.039 4.536,3.562 1.246,1.52 2.183,3.34 2.839,5.45 0.657,2.113 0.977,4.421 0.977,6.937 0,2.555 -0.32,4.875 -0.949,6.988 -0.645,2.114 -1.582,3.93 -2.817,5.453 -1.218,1.524 -2.707,2.7 -4.468,3.559 -1.758,0.848 -3.762,1.277 -6.024,1.277 -2.262,0 -4.277,-0.418 -6.078,-1.261 -1.797,-0.836 -3.312,-2.016 -4.57,-3.539 -1.258,-1.524 -2.211,-3.34 -2.879,-5.454 -0.668,-2.109 -1,-4.457 -1,-7.023 0,-2.516 0.332,-4.824 1,-6.937 0.668,-2.11 1.621,-3.93 2.879,-5.45 1.258,-1.523 2.761,-2.714 4.535,-3.562 1.769,-0.848 3.75,-1.278 5.957,-1.278 z m 85.281,-7.085 -9.105,0 0,20.113 0.23,19.133 -12.754,-39.246 -8.89,0 -12.899,39.246 0.258,-19.133 0,-20.113 -9.184,0 0,48.675 14.079,0 12.074,-37.843 12.09,37.843 14.101,0 0,-48.675 z m 36.059,19.929 -7.336,20.692 -7.078,-20.692 14.414,0 z m 17.164,-19.929 -10.238,0 -4.625,12.453 -19,0 -4.446,-12.453 -9.75,0 18.293,48.675 10.649,0 19.117,-48.675 z"
           style="fill:none;stroke:#ffffff;stroke-width:0.26277;stroke-linecap:butt;stroke-linejoin:miter;stroke-miterlimit:2.61310005;stroke-dasharray:none;stroke-opacity:1"
           id="path4168"
           inkscape:connector-curvature="0" /></g><path
         d="m 193.477,109.227 -10.457,0 -4.485,12.121 c -0.398,1.054 -0.898,2.023 -1.504,2.922 -0.601,0.882 -1.308,1.632 -2.117,2.257 -0.824,0.629 -1.723,1.106 -2.699,1.438 -0.977,0.344 -2.055,0.504 -3.235,0.504 l -9.48,0 0,-19.242 -9.75,0 0,48.675 22.621,0 c 1.899,0 3.672,-0.074 5.293,-0.23 1.606,-0.16 3.094,-0.445 4.457,-0.852 1.348,-0.402 2.567,-0.968 3.649,-1.691 1.078,-0.715 2.015,-1.649 2.824,-2.801 1.633,-2.308 2.441,-5.058 2.441,-8.277 0,-3.426 -0.949,-6.199 -2.863,-8.324 -1.902,-2.125 -4.586,-3.575 -8.055,-4.336 l 0,-0.11 c 1.965,-0.625 3.582,-1.695 4.879,-3.219 1.285,-1.523 2.442,-3.523 3.445,-5.992 l 5.036,-12.843 z m -33.977,26.867 11.855,0 c 1.735,0 3.211,0.148 4.446,0.418 1.219,0.285 2.234,0.711 3.015,1.3 0.797,0.579 1.375,1.352 1.762,2.286 0.371,0.933 0.567,2.062 0.567,3.379 0,2.418 -0.758,4.211 -2.25,5.363 -1.489,1.14 -3.739,1.719 -6.754,1.719 l -12.641,0 0,-14.465 z m 63.789,22.633 c 3.688,0 7.027,-0.602 10.008,-1.821 2.992,-1.203 5.547,-2.91 7.668,-5.105 2.121,-2.188 3.75,-4.84 4.906,-7.934 1.156,-3.094 1.734,-6.531 1.734,-10.328 0,-3.73 -0.566,-7.144 -1.695,-10.227 -1.129,-3.082 -2.75,-5.734 -4.855,-7.945 -2.106,-2.222 -4.664,-3.941 -7.657,-5.144 -3.003,-1.215 -6.371,-1.817 -10.109,-1.817 -3.711,0 -7.078,0.602 -10.098,1.817 -3.031,1.203 -5.597,2.91 -7.73,5.121 -2.145,2.211 -3.777,4.859 -4.922,7.957 -1.141,3.082 -1.707,6.508 -1.707,10.238 0,3.797 0.578,7.234 1.734,10.328 1.157,3.094 2.789,5.746 4.918,7.934 2.133,2.195 4.715,3.902 7.719,5.105 3.008,1.219 6.375,1.821 10.086,1.821 z m -0.078,-42.415 c 2.262,0 4.277,0.43 6.062,1.278 1.789,0.848 3.289,2.039 4.536,3.562 1.246,1.52 2.183,3.34 2.839,5.45 0.657,2.113 0.977,4.421 0.977,6.937 0,2.555 -0.32,4.875 -0.949,6.988 -0.645,2.114 -1.582,3.93 -2.817,5.453 -1.218,1.524 -2.707,2.7 -4.468,3.559 -1.758,0.848 -3.762,1.277 -6.024,1.277 -2.262,0 -4.277,-0.418 -6.078,-1.261 -1.797,-0.836 -3.312,-2.016 -4.57,-3.539 -1.258,-1.524 -2.211,-3.34 -2.879,-5.454 -0.668,-2.109 -1,-4.457 -1,-7.023 0,-2.516 0.332,-4.824 1,-6.937 0.668,-2.11 1.621,-3.93 2.879,-5.45 1.258,-1.523 2.761,-2.714 4.535,-3.562 1.769,-0.848 3.75,-1.278 5.957,-1.278 z m 85.281,-7.085 -9.105,0 0,20.113 0.23,19.133 -12.754,-39.246 -8.89,0 -12.899,39.246 0.258,-19.133 0,-20.113 -9.184,0 0,48.675 14.079,0 12.074,-37.843 12.09,37.843 14.101,0 0,-48.675 z m 36.059,19.929 -7.336,20.692 -7.078,-20.692 14.414,0 z m 17.164,-19.929 -10.238,0 -4.625,12.453 -19,0 -4.446,-12.453 -9.75,0 18.293,48.675 10.649,0 19.117,-48.675"
         style="fill:#ffffff;fill-opacity:1;fill-rule:nonzero;stroke:none"
         id="path4170"
         inkscape:connector-curvature="0" /><path
         d="m 338.137,374.785 c -5.364,0 -10.727,-0.933 -15.942,-2.754 l -1.133,-0.394 -17.566,31.933 0,13.875 21.059,0 c 4.035,0 7.332,3.297 7.332,7.332 0,4.035 -3.297,7.332 -7.332,7.332 l -27.899,0 c -4.035,0 -7.328,-3.297 -7.328,-7.332 0,-0.589 0.098,-1.179 0.246,-1.82 l 0.047,-0.148 0,-14.071 -64.062,0 -5.262,11.758 15.25,0 c 3.84,0 6.988,3.102 6.988,6.938 0,3.839 -3.148,6.937 -6.988,6.937 l -51.957,0 c -3.836,0 -6.938,-3.098 -6.938,-6.937 0,-3.836 3.102,-6.938 6.938,-6.938 l 21.5,0 4.625,-10.527 -20.86,-38.332 -1.085,0.394 c -5.215,1.821 -10.579,2.754 -15.989,2.754 -26.719,0 -48.515,-21.797 -48.515,-48.562 0,-26.715 21.796,-48.512 48.515,-48.512 23.766,0 43.891,17.023 47.824,40.445 l 0.2,1.129 20.664,0 0.394,-0.344 c 3.149,-3 7.282,-4.671 11.61,-4.671 9.347,0 16.925,7.574 16.925,16.921 0,1.625 -0.246,3.2 -0.687,4.774 l -0.149,0.543 27.997,50.875 12.351,-22.438 -0.887,-0.734 c -11.711,-9.301 -18.402,-23.129 -18.402,-37.988 0,-26.715 21.75,-48.512 48.516,-48.512 26.765,0 48.562,21.797 48.562,48.512 0,26.765 -21.797,48.562 -48.562,48.562 z m -143.871,-22.14 1.281,-1.231 c 4.723,-4.476 8.117,-10.184 9.742,-16.48 l 0.441,-1.723 -22.191,0 10.727,19.434 z m 11.023,-35.083 c -3.937,-15.25 -17.715,-25.929 -33.508,-25.929 -19.09,0 -34.59,15.5 -34.59,34.64 0,19.09 15.5,34.637 34.59,34.637 2.805,0 5.707,-0.39 8.61,-1.129 l 1.671,-0.441 -16.332,-29.723 c -0.05,-0.144 -0.101,-0.246 -0.148,-0.344 -0.098,-0.246 -0.199,-0.441 -0.297,-0.636 -0.047,-0.246 -0.148,-0.446 -0.195,-0.641 -0.051,-0.199 -0.098,-0.394 -0.098,-0.691 -0.051,-0.246 -0.101,-0.493 -0.101,-0.688 l 0,-0.051 c 0,-0.097 0,-0.195 -0.047,-0.293 l 0,-0.05 c 0.047,-0.098 0.047,-0.149 0.047,-0.246 0,-0.247 0.05,-0.539 0.101,-0.786 0,-0.199 0.047,-0.394 0.098,-0.589 0.047,-0.247 0.098,-0.446 0.195,-0.641 0.051,-0.246 0.149,-0.441 0.246,-0.641 0.098,-0.195 0.199,-0.394 0.297,-0.59 l 0.051,-0.05 c 0.098,-0.196 0.195,-0.344 0.293,-0.492 0.148,-0.196 0.297,-0.344 0.441,-0.54 0.149,-0.148 0.297,-0.343 0.492,-0.492 0.149,-0.148 0.344,-0.297 0.543,-0.441 0.149,-0.102 0.344,-0.246 0.54,-0.348 l 0.101,-0.047 c 0.047,-0.05 0.098,-0.097 0.145,-0.148 l 0.05,-0.051 c 0.098,0 0.196,-0.047 0.344,-0.098 0.149,-0.097 0.395,-0.195 0.59,-0.293 0.246,-0.05 0.445,-0.148 0.691,-0.199 0.145,-0.047 0.344,-0.097 0.59,-0.097 0.293,-0.047 0.539,-0.098 0.785,-0.098 0.102,0 0.2,0 0.297,-0.051 l 33.949,0 -0.441,-1.723 z m 34.195,24.407 c -1.871,-2.215 -3.101,-4.821 -3.593,-7.625 l -0.246,-1.133 -15.84,0 -0.2,1.133 c -1.968,11.808 -8.265,22.386 -17.664,29.867 l -0.882,0.734 15.937,28.981 23.027,-51.317 -0.539,-0.64 z m 18.993,5.066 -1.036,0.348 c -1.226,0.344 -2.507,0.59 -3.836,0.687 l -0.835,0.047 -20.961,46.746 52.992,0 -26.324,-47.828 z m 79.66,-55.402 c -19.09,0 -34.641,15.5 -34.641,34.64 0,9.594 3.887,18.5 10.926,25.141 l 1.277,1.231 16.336,-29.766 c 1.231,-2.215 3.594,-3.594 6.102,-3.594 1.179,0 2.312,0.297 3.343,0.887 1.625,0.887 2.805,2.363 3.348,4.133 0.492,1.82 0.293,3.691 -0.59,5.312 l -16.386,29.723 1.722,0.441 c 2.903,0.739 5.758,1.129 8.563,1.129 19.09,0 34.636,-15.547 34.636,-34.637 0,-19.14 -15.546,-34.64 -34.636,-34.64"
         style="fill:#ffffff;fill-opacity:1;fill-rule:evenodd;stroke:none"
         id="path4172"
         inkscape:connector-curvature="0" /><path
         d="m 103.699,78.117 3.789,4.356 1.653,2.078 1.464,2.051 0.036,-0.032 -4.832,-10.289 2.929,-2.547 9.516,6.223 0.035,-0.031 -2.234,-2.137 -1.793,-1.953 -3.414,-3.934 3.785,-3.289 11.179,12.86 -5.089,4.425 -9.243,-6.046 4.704,9.992 -5.09,4.426 -11.18,-12.864 3.785,-3.289 z m 32.34,-8.707 c 0.492,-0.344 0.84,-0.75 1.047,-1.211 0.203,-0.461 0.293,-0.957 0.262,-1.484 -0.036,-0.524 -0.157,-1.055 -0.375,-1.586 -0.219,-0.531 -0.5,-1.043 -0.844,-1.535 -0.859,-1.227 -1.766,-2.047 -2.719,-2.457 -0.953,-0.414 -1.902,-0.289 -2.844,0.371 -0.519,0.363 -0.875,0.789 -1.07,1.285 -0.191,0.492 -0.254,1.008 -0.187,1.547 0.07,0.539 0.222,1.066 0.461,1.586 0.238,0.515 0.527,1.019 0.871,1.512 0.336,0.476 0.707,0.91 1.113,1.3 0.41,0.391 0.848,0.692 1.32,0.914 0.469,0.219 0.961,0.317 1.465,0.301 0.508,-0.019 1.008,-0.199 1.5,-0.543 z m 2.43,3.383 c -1.074,0.754 -2.18,1.273 -3.313,1.566 -1.133,0.293 -2.25,0.348 -3.351,0.168 -1.102,-0.183 -2.141,-0.601 -3.117,-1.257 -0.977,-0.653 -1.844,-1.516 -2.594,-2.59 -0.817,-1.164 -1.375,-2.332 -1.676,-3.508 -0.305,-1.176 -0.359,-2.313 -0.164,-3.41 0.195,-1.098 0.625,-2.129 1.293,-3.086 0.668,-0.957 1.543,-1.821 2.629,-2.578 1.035,-0.727 2.113,-1.235 3.234,-1.528 1.125,-0.297 2.242,-0.355 3.356,-0.183 1.113,0.172 2.179,0.593 3.195,1.261 1.016,0.664 1.93,1.579 2.742,2.743 0.664,0.945 1.145,1.953 1.445,3.035 0.305,1.078 0.391,2.176 0.262,3.301 -0.129,1.121 -0.519,2.203 -1.168,3.242 -0.648,1.043 -1.574,1.984 -2.773,2.824 z m 14.242,-20.648 c 0.941,-0.481 1.59,-0.918 1.945,-1.313 0.36,-0.394 0.383,-0.894 0.074,-1.5 -0.265,-0.52 -0.632,-0.785 -1.113,-0.801 -0.472,-0.011 -1.058,0.157 -1.746,0.508 l -2.172,1.106 1.43,2.804 1.582,-0.804 z m 2.863,5.207 c 0.692,-0.352 1.164,-0.68 1.43,-0.981 0.262,-0.301 0.258,-0.719 -0.016,-1.254 -0.215,-0.422 -0.539,-0.668 -0.972,-0.738 -0.438,-0.07 -0.907,0.023 -1.414,0.281 l -2.067,1.051 1.289,2.531 1.75,-0.89 z m -5.258,-11.989 c 1.028,-0.519 1.981,-0.902 2.856,-1.148 0.879,-0.242 1.691,-0.328 2.445,-0.262 0.75,0.07 1.43,0.324 2.031,0.758 0.606,0.437 1.118,1.07 1.54,1.898 0.429,0.844 0.585,1.696 0.464,2.555 -0.121,0.859 -0.527,1.598 -1.222,2.215 0.726,0.074 1.429,0.297 2.105,0.668 0.68,0.371 1.199,0.918 1.567,1.633 0.371,0.734 0.531,1.425 0.476,2.082 -0.055,0.656 -0.285,1.269 -0.687,1.836 -0.403,0.57 -0.938,1.101 -1.606,1.59 -0.672,0.492 -1.465,0.972 -2.379,1.437 l -7.254,3.699 -7.738,-15.187 7.402,-3.774 z m 19.598,-8.988 6.106,15.91 -5.215,2.004 -6.106,-15.91 5.215,-2.004 z m 21.492,-7.684 1.231,3.782 -7.293,2.371 4.035,12.426 -5.313,1.722 -5.265,-16.207 12.605,-4.094 z m 13.559,-3.277 3.543,16.672 -5.465,1.16 -3.543,-16.668 5.465,-1.164 z m 9.582,10.609 4.976,-0.613 -1.531,-12.472 5.547,-0.684 1.531,12.476 4.981,-0.613 0.543,4.442 -15.504,1.906 -0.543,-4.442 z m 25.211,6.563 3.988,-3.57 3.242,-0.059 -2.308,3.543 -4.922,0.086 z m 6.25,-16.418 -3.528,0.059 1.832,6.078 1.696,-6.137 z m -5.332,-5.707 0.676,2.234 5.562,-0.097 0.625,-2.258 5.563,-0.098 -5.813,17.149 -5.68,0.097 -6.402,-16.933 5.469,-0.094 z m 42.617,9.355 c 0.227,-1.433 0.594,-2.621 1.102,-3.562 0.511,-0.942 1.156,-1.664 1.937,-2.164 0.781,-0.496 1.695,-0.805 2.734,-0.922 1.043,-0.113 2.231,-0.063 3.575,0.148 2.804,0.446 4.754,1.387 5.851,2.832 1.098,1.446 1.434,3.516 1.004,6.211 L 297.992,41.875 292.473,41 294.07,30.926 c 0.157,-0.985 0.082,-1.774 -0.222,-2.375 -0.305,-0.598 -0.926,-0.973 -1.86,-1.121 -0.547,-0.086 -1.008,-0.078 -1.383,0.023 -0.375,0.098 -0.675,0.274 -0.898,0.527 -0.223,0.254 -0.395,0.551 -0.516,0.903 -0.117,0.347 -0.214,0.758 -0.289,1.222 l -1.593,10.079 -5.52,-0.875 1.504,-9.493 z m 27.988,11.813 2.516,0.672 c 0.656,0.176 1.219,0.172 1.695,-0.012 0.473,-0.184 0.785,-0.555 0.938,-1.121 0.144,-0.547 0.043,-1 -0.313,-1.356 -0.351,-0.355 -0.965,-0.652 -1.832,-0.886 l -2.129,-0.567 -0.875,3.27 z m 3.492,-6.441 c 0.637,0.171 1.161,0.257 1.559,0.257 0.398,0 0.727,-0.078 0.984,-0.238 0.254,-0.16 0.461,-0.406 0.625,-0.738 0.164,-0.332 0.321,-0.789 0.477,-1.367 0.18,-0.672 0.367,-1.262 0.562,-1.774 0.196,-0.512 0.356,-0.855 0.485,-1.035 l 5.465,1.465 -0.133,0.504 c -0.262,-0.071 -0.469,0.058 -0.621,0.386 -0.153,0.325 -0.395,1.106 -0.727,2.34 -0.215,0.809 -0.453,1.446 -0.707,1.918 -0.258,0.469 -0.543,0.817 -0.855,1.043 -0.317,0.227 -0.641,0.383 -0.985,0.461 -0.34,0.082 -0.808,0.145 -1.41,0.199 0.844,0.504 1.403,1.176 1.676,2.016 0.273,0.844 0.277,1.758 0.012,2.75 -0.442,1.645 -1.305,2.691 -2.594,3.137 -1.289,0.449 -3.274,0.312 -5.957,-0.407 l -7.774,-2.082 4.415,-16.461 5.394,1.446 -1.539,5.738 1.648,0.442 z m 21.762,9.058 c 0.965,0.43 1.715,0.66 2.246,0.692 0.531,0.027 0.934,-0.266 1.211,-0.887 0.238,-0.531 0.211,-0.989 -0.078,-1.371 -0.289,-0.379 -0.785,-0.723 -1.492,-1.039 l -2.227,-0.993 -1.281,2.879 1.621,0.719 z m -2.242,5.508 c 0.703,0.312 1.258,0.476 1.656,0.492 0.403,0.012 0.723,-0.254 0.965,-0.801 0.195,-0.433 0.184,-0.84 -0.035,-1.222 -0.219,-0.383 -0.59,-0.692 -1.109,-0.922 l -2.118,-0.942 -1.156,2.594 1.797,0.801 z m 6.004,-11.629 c 1.055,0.469 1.949,0.965 2.691,1.496 0.742,0.527 1.321,1.106 1.742,1.734 0.418,0.625 0.649,1.313 0.692,2.055 0.039,0.742 -0.133,1.539 -0.508,2.391 -0.387,0.863 -0.949,1.519 -1.695,1.969 -0.742,0.445 -1.571,0.593 -2.489,0.445 0.403,0.609 0.668,1.297 0.805,2.055 0.137,0.761 0.043,1.507 -0.285,2.246 -0.336,0.746 -0.773,1.308 -1.316,1.679 -0.547,0.371 -1.164,0.578 -1.86,0.621 -0.695,0.047 -1.441,-0.035 -2.246,-0.246 -0.805,-0.215 -1.676,-0.527 -2.613,-0.945 l -7.438,-3.313 6.93,-15.566 7.59,3.379 z m 19.484,16.254 -3.082,-1.711 -1.449,6.18 4.531,-4.469 z m -1.761,-7.609 -0.532,2.277 4.864,2.695 1.671,-1.644 4.868,2.699 -13.606,11.941 -4.969,-2.754 2.922,-17.863 4.782,2.649 z m 11.984,27.195 -4.285,-3 9.777,-13.961 4.383,3.066 -3.098,4.422 -2.398,3.055 10.305,-4.109 4.285,3 -9.778,13.96 -4.383,-3.066 3.11,-4.441 2.402,-3.059 -10.32,4.133 z m 28.941,9.055 -2.664,-2.317 -2.703,5.742 5.367,-3.425 z m -0.144,-7.809 -0.992,2.113 4.195,3.653 1.976,-1.262 4.2,3.648 -15.789,8.856 -4.289,-3.727 6.574,-16.871 4.125,3.59"
         style="fill:#ffffff;fill-opacity:1;fill-rule:nonzero;stroke:none"
         id="path4174"
         inkscape:connector-curvature="0" /></g></g></svg>